<?xml version="1.0" encoding="utf-8"?>
<!-- Generator: Adobe Illustrator 24.0.0, SVG Export Plug-In . SVG Version: 6.00 Build 0)  -->
<svg version="1.1" id="Layer_1" xmlns="http://www.w3.org/2000/svg" xmlns:xlink="http://www.w3.org/1999/xlink" x="0px" y="0px"
	 viewBox="0 0 1242 600" style="enable-background:new 0 0 1242 600;" xml:space="preserve">
<style type="text/css">
	.st0{fill:none;stroke:#E59CB5;stroke-width:4;stroke-miterlimit:10;}
	.st1{fill:#E59CB5;}
	.st2{fill:#FFDF8A;stroke:#E59CB5;stroke-width:3;stroke-miterlimit:10;}
	.st3{fill:#FFEA5F;}
	.st4{fill:#FFFFFF;}
</style>
<path class="st0" d="M706.5,469.5c-10-90.69-19.51-160.89-30-220c0,0-12.61-71.06,12-109c12.67-19.53,30-28,30-28
	c2.52-1.23,11.89-5.61,25-7c10.98-1.16,19.55,0.3,23,1c0,0,13.14,2.65,25,10c25.17,15.61,34.12,68.32,36,80
	c9.78,60.71,12.93,96.24,16,118c4.41,31.28,14.46,75.6,40,128"/>
<g>
	<g>
		<path class="st1" d="M701.54,149.03c-6.06,1.49-8.19,10.32-3.24,14.24c2.4,1.9,5.8,2.42,8.68,1.38c3.13-1.13,5.14-3.8,5.51-7.09
			c0.4-3.51-1.27-7.15-4.25-9.06c-0.68-0.44-1.65-0.14-2.05,0.54c-0.42,0.72-0.15,1.61,0.54,2.05c0.12,0.08,0.24,0.16,0.36,0.24
			c0.21,0.15-0.04-0.05,0.15,0.12c0.23,0.21,0.46,0.42,0.67,0.65c0.05,0.05,0.26,0.3,0.21,0.23c-0.05-0.07,0.14,0.2,0.18,0.25
			c0.18,0.26,0.34,0.53,0.48,0.8c0.07,0.13,0.13,0.26,0.19,0.39c0.12,0.24-0.02-0.08,0.07,0.18c0.1,0.3,0.21,0.59,0.28,0.9
			c0.04,0.14,0.07,0.28,0.1,0.42c0.02,0.08,0.09,0.52,0.05,0.25c0.04,0.31,0.06,0.63,0.07,0.94c0,0.29-0.01,0.58-0.03,0.86
			c-0.01,0.07-0.01,0.14-0.02,0.21c0-0.03,0.04-0.22,0-0.04c-0.03,0.16-0.06,0.33-0.1,0.49c-0.07,0.28-0.15,0.55-0.24,0.82
			c-0.03,0.07-0.16,0.38-0.07,0.17c-0.07,0.15-0.14,0.3-0.23,0.45c-0.07,0.13-0.14,0.25-0.22,0.37c-0.04,0.06-0.22,0.33-0.17,0.26
			c0.05-0.07-0.15,0.18-0.2,0.24c-0.11,0.12-0.22,0.24-0.34,0.35c-0.1,0.1-0.21,0.19-0.31,0.28c-0.2,0.18,0.09-0.04-0.14,0.1
			c-0.25,0.16-0.5,0.33-0.77,0.47c-0.12,0.06-0.25,0.12-0.37,0.18c-0.16,0.07,0.01-0.01,0.04-0.02c-0.06,0.03-0.13,0.05-0.2,0.07
			c-0.29,0.1-0.57,0.19-0.87,0.26c-0.14,0.03-0.27,0.05-0.41,0.08c-0.28,0.06,0.13,0-0.16,0.03c-0.3,0.03-0.61,0.05-0.91,0.05
			c-0.3,0-0.61-0.02-0.91-0.06c0.26,0.03-0.06-0.01-0.15-0.03c-0.16-0.03-0.32-0.07-0.48-0.11c-0.27-0.07-0.53-0.15-0.79-0.25
			c-0.06-0.02-0.13-0.05-0.19-0.08c0.03,0.01,0.2,0.09,0.04,0.01c-0.14-0.07-0.29-0.14-0.43-0.22c-0.24-0.13-0.47-0.28-0.69-0.44
			c0.19,0.14-0.07-0.06-0.13-0.11c-0.12-0.11-0.24-0.22-0.35-0.33c-0.1-0.1-0.19-0.2-0.28-0.31c-0.11-0.13,0,0.01,0.02,0.03
			c-0.04-0.06-0.08-0.11-0.12-0.17c-0.17-0.24-0.3-0.5-0.44-0.76c-0.13-0.24,0.03,0.13-0.06-0.13c-0.04-0.13-0.09-0.25-0.13-0.38
			c-0.08-0.28-0.14-0.56-0.19-0.85c-0.03-0.18,0.01,0.04,0.01,0.07c-0.01-0.07-0.01-0.13-0.02-0.2c-0.01-0.13-0.02-0.27-0.02-0.4
			c-0.01-0.29,0.01-0.58,0.04-0.88c0-0.02,0.03-0.24,0.01-0.07c-0.03,0.18,0.02-0.11,0.03-0.13c0.03-0.16,0.06-0.31,0.1-0.46
			c0.08-0.33,0.19-0.65,0.31-0.97c0.06-0.16-0.01,0.02-0.02,0.05c0.04-0.08,0.07-0.16,0.11-0.25c0.07-0.14,0.14-0.28,0.22-0.42
			c0.08-0.14,0.16-0.27,0.24-0.4c0.04-0.06,0.08-0.11,0.11-0.17c0.02-0.02,0.18-0.24,0.08-0.12c-0.1,0.13,0.04-0.05,0.05-0.06
			c0.06-0.07,0.11-0.14,0.17-0.2c0.1-0.12,0.21-0.23,0.32-0.33c0.11-0.11,0.23-0.21,0.34-0.31c0.01-0.01,0.19-0.15,0.06-0.05
			c-0.13,0.1,0.09-0.06,0.12-0.08c0.26-0.17,0.53-0.32,0.8-0.46c0.15-0.08-0.03,0.01-0.05,0.02c0.08-0.03,0.17-0.06,0.25-0.09
			c0.17-0.06,0.35-0.11,0.52-0.15c0.79-0.19,1.26-1.08,1.05-1.85C703.16,149.28,702.33,148.84,701.54,149.03L701.54,149.03z"/>
	</g>
</g>
<g>
	<g>
		<path class="st1" d="M771.65,133.29c-2.71-0.32-5.39,1.36-6.72,3.66c-1.37,2.37-1.17,5.2,0.52,7.34c1.43,1.81,3.91,2.97,6.23,2.75
			c2.55-0.24,4.53-1.84,5.5-4.18c1.02-2.47,0.63-5.36-1.13-7.38c-0.53-0.61-1.58-0.55-2.12,0c-0.61,0.61-0.54,1.51,0,2.12
			c0.04,0.04,0.27,0.37,0.08,0.08c0.05,0.07,0.09,0.13,0.14,0.2c0.11,0.17,0.2,0.35,0.3,0.54c0.13,0.25,0.01,0.03-0.01-0.02
			c0.04,0.12,0.08,0.23,0.12,0.35c0.07,0.21,0.08,0.45,0.16,0.66c0.08,0.21-0.02-0.35,0.01,0.03c0.01,0.08,0.01,0.16,0.02,0.25
			c0.01,0.21,0.01,0.41,0,0.62c0,0.1-0.03,0.21-0.02,0.31c0.01,0.23,0.07-0.34,0,0.03c-0.04,0.22-0.09,0.45-0.15,0.67
			c-0.06,0.2-0.12,0.39-0.2,0.59c-0.09,0.22,0.17-0.31-0.02,0.04c-0.04,0.07-0.07,0.15-0.11,0.22c-0.1,0.18-0.2,0.36-0.32,0.53
			c0,0-0.24,0.32-0.1,0.14c0.12-0.15-0.17,0.19-0.2,0.22c-0.13,0.13-0.26,0.26-0.4,0.38c-0.18,0.15,0.29-0.18-0.04,0.03
			c-0.07,0.04-0.14,0.09-0.21,0.13c-0.18,0.11-0.36,0.21-0.55,0.29c0.32-0.14-0.08,0.02-0.12,0.03c-0.12,0.04-0.24,0.07-0.37,0.1
			c-0.08,0.02-0.17,0.03-0.25,0.05c0.36-0.07-0.04,0-0.11,0.01c-0.19,0.01-0.38,0.01-0.57,0.01c-0.11,0-0.63-0.09-0.3-0.02
			c-0.25-0.05-0.5-0.1-0.75-0.18c-0.08-0.02-0.65-0.25-0.36-0.12c-0.2-0.09-0.39-0.19-0.57-0.3c-0.17-0.1-0.33-0.2-0.49-0.32
			c-0.2-0.14,0.25,0.23-0.05-0.04c-0.1-0.09-0.19-0.17-0.29-0.26c-0.16-0.15-0.3-0.31-0.44-0.46c-0.19-0.21-0.04-0.05,0,0
			c-0.07-0.1-0.15-0.21-0.21-0.32c-0.11-0.18-0.21-0.37-0.3-0.56c0.14,0.28-0.08-0.24-0.11-0.36c-0.03-0.12-0.06-0.25-0.09-0.38
			c-0.01-0.05-0.02-0.26,0-0.02c-0.02-0.24-0.01-0.48-0.01-0.72c0-0.28,0-0.11-0.01-0.03c0.02-0.14,0.05-0.28,0.08-0.42
			c0.06-0.23,0.13-0.46,0.22-0.68c-0.11,0.28,0.08-0.15,0.09-0.17c0.07-0.13,0.14-0.26,0.21-0.38c0.06-0.1,0.13-0.2,0.2-0.3
			c0.04-0.06,0.08-0.12,0.13-0.18c-0.08,0.11-0.07,0.1,0.04-0.04c0.44-0.47,0.6-0.64,1.01-0.91c0.22-0.14,0.46-0.27,0.7-0.38
			c0.24-0.11-0.32,0.09,0.11-0.04c0.14-0.04,0.27-0.09,0.41-0.13c0.14-0.04,0.28-0.07,0.42-0.09c-0.26,0.05,0.09-0.01,0.17-0.01
			c0.29-0.02,0.58,0,0.87,0.03c0.81,0.09,1.5-0.76,1.5-1.5C773.15,133.9,772.46,133.39,771.65,133.29L771.65,133.29z"/>
	</g>
</g>
<g>
	<g>
		<path class="st1" d="M791.64,149.75c-5.63,1.47-6.76,9.98-1.76,12.9c2.42,1.42,5.59,1.2,7.98-0.19c2.62-1.52,4-4.41,3.61-7.41
			c-0.45-3.37-2.85-6.37-6.14-7.34c-1.86-0.54-2.65,2.35-0.8,2.89c0.92,0.27,1.69,0.75,2.42,1.53c0.1,0.11,0.2,0.22,0.29,0.33
			c0.3,0.35-0.13-0.22,0.12,0.16c0.14,0.21,0.27,0.41,0.4,0.62c0.07,0.13,0.14,0.26,0.21,0.39c0,0.01,0.21,0.45,0.09,0.18
			c0.11,0.27,0.21,0.55,0.28,0.83c0.08,0.28,0.14,0.57,0.18,0.85c-0.01-0.07-0.02-0.26,0,0.03c0.01,0.14,0.02,0.29,0.02,0.43
			c0.01,0.29,0,0.58-0.04,0.87c0.01-0.07,0.06-0.25-0.01,0.03c-0.05,0.19-0.08,0.38-0.14,0.56c-0.04,0.14-0.09,0.28-0.14,0.42
			c0.09-0.23-0.02,0.05-0.05,0.1c-0.12,0.22-0.25,0.43-0.38,0.65c-0.22,0.36,0.18-0.19-0.09,0.13c-0.06,0.07-0.12,0.14-0.18,0.2
			c-0.21,0.23-0.44,0.45-0.69,0.64c0.25-0.2-0.11,0.07-0.13,0.08c-0.08,0.05-0.15,0.1-0.23,0.15c-0.23,0.14-0.48,0.27-0.72,0.38
			c0.29-0.14-0.12,0.04-0.15,0.06c-0.09,0.03-0.17,0.06-0.26,0.09c-0.31,0.1-0.62,0.16-0.93,0.23c-0.42,0.09,0.19-0.01-0.07,0.01
			c-0.11,0.01-0.23,0.02-0.34,0.03c-0.27,0.02-0.54,0.02-0.81,0c-0.09-0.01-0.18-0.01-0.27-0.02c0.35,0.03-0.08-0.02-0.13-0.03
			c-0.31-0.06-0.6-0.15-0.9-0.25c-0.05-0.02-0.26-0.12-0.01,0c-0.12-0.06-0.24-0.11-0.36-0.18c-0.12-0.06-0.23-0.13-0.34-0.21
			c-0.03-0.02-0.37-0.29-0.13-0.08c-0.17-0.14-0.33-0.29-0.49-0.46c-0.03-0.03-0.29-0.36-0.09-0.09c-0.07-0.1-0.15-0.21-0.21-0.32
			c-0.07-0.11-0.13-0.22-0.19-0.33c-0.02-0.05-0.18-0.43-0.06-0.1c-0.08-0.2-0.14-0.4-0.2-0.6c-0.03-0.12-0.06-0.25-0.09-0.37
			c-0.01-0.06-0.05-0.47-0.02-0.1c-0.02-0.26-0.04-0.51-0.03-0.77c0-0.13,0.01-0.26,0.02-0.39c0.01-0.09,0.01-0.17,0.02-0.26
			c-0.03,0.19-0.03,0.19,0,0.02c0.05-0.25,0.1-0.5,0.18-0.75c0.04-0.12,0.08-0.24,0.12-0.37c0.03-0.08,0.06-0.16,0.09-0.24
			c-0.06,0.14-0.07,0.16-0.02,0.07c0.12-0.25,0.25-0.49,0.4-0.72c0.07-0.11,0.14-0.21,0.22-0.31c-0.2,0.27,0.06-0.05,0.08-0.08
			c0.08-0.09,0.17-0.18,0.26-0.27c0.05-0.05,0.46-0.37,0.17-0.16c0.2-0.15,0.41-0.28,0.63-0.39c0.05-0.03,0.43-0.16,0.1-0.05
			c0.16-0.06,0.32-0.11,0.49-0.15C794.3,152.15,793.51,149.26,791.64,149.75L791.64,149.75z"/>
	</g>
</g>
<path class="st2" d="M743.89,173.37c-4.62,1.62-16.28,5.72-22.25,17.29c-5.45,10.58-5.46,26.06,1.65,31.21
	c5.73,4.15,17.8,2.84,17.8,2.84l0,0c19.62-4.08,21.22-4.22,23.61-4.32c9.24-0.41,10.65,1.4,14.13-0.55
	c7.92-4.45,7.78-17.87,7.76-18.7c-0.31-13.56-11.11-27.3-24.81-30.02C754.46,169.66,748.44,171.78,743.89,173.37z"/>
<path class="st3" d="M346.72,133.5c-52.38,27.33-98.85,51.58-111.52,104c-15.2,62.93,29.53,120.03,36.56,129
	c40.49,51.67,112.55,79.16,149.91,60c5.64-2.89,15.83-9.59,28.34-7c22.2,4.6,32.32,34.48,37.48,32c4.99-2.39-8.8-28.19-1.83-51
	c8.73-28.55,41.97-26.27,70.38-50c36.41-30.4,56.55-96.52,40.22-152c-22.94-77.93-106.37-95.9-117-98
	C428.99,90.58,389.94,110.95,346.72,133.5z"/>
<g>
	<g>
		<path class="st4" d="M277.52,214.75c8.06,23.32,19.41,45.3,31.67,66.65c12.29,21.4,25,42.57,37.54,63.83
			c7.23,12.27,14.47,24.54,21.7,36.81c1.92,3.26,5.31,5.89,8.96,6.89c3.59,0.99,8.37,0.54,11.56-1.51c3.2-2.06,6.02-5.14,6.89-8.96
			c0.9-3.93,0.58-8.02-1.51-11.56c-11.59-19.66-23.18-39.32-34.77-58.98c-11.08-18.8-22.46-37.47-32.86-56.66
			c-5.67-10.46-10.98-21.11-15.62-32.07c0.5,1.19,1.01,2.39,1.51,3.58c-2.22-5.26-4.28-10.59-6.15-15.99
			c-1.28-3.72-3.43-6.93-6.89-8.96c-3.22-1.88-7.95-2.68-11.56-1.51c-3.63,1.17-7.13,3.42-8.96,6.89
			C277.21,206.63,276.2,210.94,277.52,214.75L277.52,214.75z"/>
	</g>
</g>
<g>
	<g>
		<path class="st4" d="M351.46,304c0.49-0.38,0.98-0.77,1.48-1.15c-1.01,0.78-2.02,1.56-3.04,2.35
			c14.06-10.86,28.88-20.72,44.32-29.51c3.25-1.85,5.9-5.37,6.89-8.96c0.99-3.59,0.54-8.37-1.51-11.56
			c-2.06-3.2-5.14-6.02-8.96-6.89c-3.96-0.9-7.97-0.53-11.56,1.51c-17.12,9.75-33.3,20.89-48.83,33.01c-1.46,1.36-2.5,2.97-3.1,4.83
			c-0.94,1.79-1.37,3.71-1.29,5.78c0,3.68,1.63,8.07,4.39,10.61c2.86,2.62,6.61,4.57,10.61,4.39c1.33-0.18,2.66-0.36,3.99-0.54
			C347.38,307.15,349.59,305.86,351.46,304L351.46,304z"/>
	</g>
</g>
<g>
	<g>
		<path class="st4" d="M357.13,179.11c7.49,22.23,14.99,44.47,22.48,66.7c7.49,22.23,14.99,44.47,22.48,66.7
			c4.2,12.46,8.4,24.91,12.59,37.37c1.25,3.71,3.45,6.95,6.89,8.96c3.22,1.88,7.95,2.68,11.56,1.51c3.63-1.17,7.13-3.42,8.96-6.89
			c1.83-3.46,2.8-7.73,1.51-11.56c-7.49-22.23-14.99-44.47-22.48-66.7c-7.49-22.23-14.99-44.47-22.48-66.7
			c-4.2-12.46-8.4-24.91-12.59-37.37c-1.25-3.71-3.45-6.95-6.89-8.96c-3.22-1.88-7.95-2.68-11.56-1.51
			c-3.63,1.17-7.13,3.42-8.96,6.89C356.81,171,355.84,175.28,357.13,179.11L357.13,179.11z"/>
	</g>
</g>
<g>
	<g>
		<path class="st4" d="M471.75,255.54c4.06,18.13,8.11,36.25,12.17,54.38c1.15,5.12,2.29,10.24,3.44,15.36
			c0.8,3.57,3.79,7.15,6.89,8.96c3.22,1.88,7.95,2.68,11.56,1.51c3.63-1.17,7.13-3.42,8.96-6.89c1.94-3.67,2.43-7.47,1.51-11.56
			c-4.06-18.13-8.11-36.25-12.17-54.38c-1.15-5.12-2.29-10.24-3.44-15.36c-0.8-3.57-3.79-7.15-6.89-8.96
			c-3.22-1.88-7.95-2.68-11.56-1.51c-3.63,1.17-7.13,3.42-8.96,6.89C471.32,247.65,470.83,251.45,471.75,255.54L471.75,255.54z"/>
	</g>
</g>
<g>
	<g>
		<path class="st4" d="M472.34,217.12c3.85,0,7.89-1.67,10.61-4.39c2.6-2.6,4.56-6.87,4.39-10.61c-0.17-3.88-1.45-7.9-4.39-10.61
			c-2.93-2.69-6.54-4.39-10.61-4.39c-3.85,0-7.89,1.67-10.61,4.39c-2.6,2.6-4.56,6.87-4.39,10.61c0.17,3.88,1.45,7.9,4.39,10.61
			C464.67,215.42,468.28,217.12,472.34,217.12L472.34,217.12z"/>
	</g>
</g>
<g>
	<g>
		<path class="st1" d="M732.5,127c-2.88,0.69-5.07,3.17-5.76,6c-0.74,3.04,0.22,6.15,2.73,8.05c2.35,1.77,5.75,2.15,8.5,1.17
			c3.08-1.09,5.09-3.66,5.48-6.89c0.41-3.45-1.29-7.02-4.24-8.85c-1.65-1.02-3.15,1.57-1.51,2.59c0.49,0.3,0.67,0.44,1.15,0.94
			c0.4,0.42,0.58,0.68,0.92,1.32c0.45,0.85,0.73,1.95,0.74,2.94c0,0.28-0.02,0.56-0.04,0.85c-0.03,0.45,0.07-0.28-0.02,0.16
			c-0.03,0.14-0.05,0.28-0.09,0.41c-0.17,0.73-0.23,0.89-0.57,1.47c-0.54,0.93-1.14,1.47-2.21,1.99c-0.02,0.01-0.44,0.19-0.15,0.07
			c-0.13,0.05-0.26,0.1-0.4,0.14c-0.27,0.09-0.54,0.16-0.81,0.22c-0.14,0.03-0.28,0.05-0.42,0.08c-0.45,0.08,0.29-0.01-0.16,0.02
			c-0.33,0.02-0.66,0.04-0.99,0.04c-0.24-0.01-0.47-0.02-0.71-0.05c-0.45-0.04,0.28,0.07-0.16-0.03c-0.14-0.03-0.28-0.05-0.41-0.08
			c-0.27-0.06-0.54-0.14-0.81-0.23c-0.03-0.01-0.45-0.18-0.16-0.05c-0.17-0.07-0.34-0.15-0.5-0.24c-0.97-0.52-1.53-1.05-2.03-2.04
			c-0.02-0.04-0.18-0.44-0.06-0.12c-0.04-0.12-0.09-0.25-0.13-0.37c-0.08-0.25-0.13-0.51-0.18-0.77c-0.08-0.41,0,0.3-0.01-0.12
			c0-0.13-0.02-0.26-0.02-0.39c-0.01-0.31,0.01-0.62,0.04-0.92c-0.04,0.36,0.02-0.08,0.02-0.13c0.03-0.17,0.07-0.35,0.12-0.52
			c0.08-0.3,0.18-0.6,0.3-0.89c-0.13,0.31,0.05-0.09,0.07-0.13c0.08-0.16,0.16-0.32,0.25-0.47c0.07-0.11,0.14-0.23,0.21-0.34
			c0.03-0.05,0.36-0.48,0.16-0.23c0.2-0.24,0.41-0.47,0.63-0.68c0.1-0.09,0.2-0.18,0.3-0.26c-0.24,0.21,0.18-0.12,0.23-0.16
			c0.26-0.17,0.53-0.32,0.82-0.44c-0.3,0.13,0.11-0.03,0.14-0.04c0.17-0.06,0.35-0.1,0.53-0.15c0.79-0.19,1.26-1.08,1.05-1.85
			C734.13,127.24,733.29,126.81,732.5,127L732.5,127z"/>
	</g>
</g>
</svg>
